<?xml version="1.0" standalone="no"?>
<!DOCTYPE svg PUBLIC "-//W3C//DTD SVG 20010904//EN"
 "http://www.w3.org/TR/2001/REC-SVG-20010904/DTD/svg10.dtd">
<svg version="1.0" xmlns="http://www.w3.org/2000/svg"
 width="500.000000pt" height="500.000000pt" viewBox="0 0 500.000000 500.000000"
 preserveAspectRatio="xMidYMid meet">
<metadata>
Created by potrace 1.14, written by Peter Selinger 2001-2017
</metadata>
<g transform="translate(0.000000,500.000000) scale(0.100000,-0.100000)"
fill="#000000" stroke="none">
<path d="M2625 4683 c-255 -34 -613 -87 -658 -99 -191 -49 -683 -273 -847
-385 -219 -149 -538 -493 -629 -676 -117 -234 -180 -529 -211 -978 -28 -422
-34 -623 -21 -755 15 -149 25 -188 71 -285 89 -186 533 -666 750 -810 221
-148 571 -304 810 -364 109 -27 381 -61 485 -61 155 0 568 100 769 186 369
157 674 350 882 558 99 100 243 280 248 309 1 9 38 54 83 100 190 198 295 397
385 727 42 156 24 497 -43 823 -43 210 -91 312 -238 517 -57 80 -164 235 -237
345 -154 232 -218 313 -312 390 -103 85 -193 133 -495 264 -322 139 -387 164
-490 185 -70 15 -225 19 -302 9z m327 -132 c84 -22 141 -45 498 -203 135 -59
271 -127 320 -159 84 -55 196 -157 241 -220 20 -29 16 -27 -37 16 -72 60 -306
214 -430 284 -131 74 -284 140 -391 167 -318 81 -879 1 -1403 -199 -137 -52
-183 -75 -271 -133 -287 -189 -713 -888 -873 -1429 -75 -254 -105 -439 -113
-696 -7 -211 4 -310 45 -428 85 -239 315 -510 592 -696 134 -90 363 -196 570
-265 445 -148 637 -172 881 -110 233 60 890 340 1134 485 147 87 153 85 28 -8
-212 -157 -512 -332 -685 -400 -178 -70 -501 -151 -652 -163 -92 -8 -381 28
-531 66 -142 35 -333 111 -516 203 -172 86 -259 143 -371 241 -87 76 -339 343
-453 481 -186 225 -201 285 -192 770 10 523 53 861 146 1141 44 137 81 210
152 304 85 114 383 412 489 490 135 99 496 269 755 355 130 44 187 54 710 124
101 14 267 5 357 -18z m73 -181 c156 -20 350 -96 545 -212 157 -94 342 -220
401 -276 105 -96 124 -149 159 -422 11 -91 35 -250 51 -355 27 -164 30 -206
25 -310 -9 -207 -116 -578 -209 -727 -69 -110 -192 -254 -387 -449 -146 -146
-196 -190 -300 -259 -218 -145 -531 -284 -732 -324 -152 -31 -241 -17 -558 90
-469 159 -637 263 -802 495 -98 138 -171 315 -198 482 -26 159 -3 432 55 674
74 309 252 631 470 849 134 135 269 227 480 329 264 128 407 173 580 182 155
8 264 -20 390 -101 68 -44 434 -409 528 -526 110 -137 128 -198 156 -533 18
-212 15 -321 -14 -431 -67 -258 -235 -584 -379 -734 -165 -173 -446 -335 -673
-388 -94 -22 -236 -15 -323 16 -305 107 -518 301 -631 573 -44 107 -60 204
-61 372 -2 173 8 228 78 440 56 172 105 277 174 381 298 445 547 576 884 463
136 -45 352 -185 454 -293 91 -96 113 -169 148 -487 20 -190 15 -337 -15 -429
-39 -115 -108 -244 -167 -309 -138 -152 -402 -279 -619 -297 -114 -10 -221 26
-360 119 -130 88 -190 163 -240 297 -25 65 -28 89 -28 180 0 90 5 120 32 210
54 175 102 263 196 355 98 96 225 177 338 216 96 32 138 29 244 -20 110 -52
194 -150 261 -307 65 -154 78 -253 47 -361 -56 -193 -172 -278 -449 -328 -106
-20 -183 -10 -283 35 -88 40 -120 65 -144 113 -67 130 70 396 262 510 103 60
154 49 272 -62 81 -77 97 -104 97 -168 0 -137 -82 -233 -197 -233 -60 0 -143
34 -183 75 -29 30 -34 41 -33 83 2 106 88 202 182 202 89 0 114 -39 65 -102
-24 -30 -23 -30 10 4 59 61 42 113 -43 139 -136 40 -293 -153 -252 -309 30
-110 229 -187 346 -133 50 22 117 97 134 148 6 21 15 72 18 113 7 98 -13 141
-110 239 -89 89 -158 126 -219 117 -65 -10 -145 -61 -228 -145 -131 -134 -196
-275 -188 -415 6 -133 79 -211 245 -262 74 -23 95 -26 176 -21 253 15 447 120
524 284 71 154 77 253 23 415 -74 221 -172 352 -315 423 -133 66 -207 64 -357
-11 -206 -103 -350 -242 -425 -412 -14 -31 -41 -111 -60 -177 -39 -136 -48
-258 -24 -355 24 -99 85 -215 147 -280 70 -74 224 -175 318 -209 99 -35 224
-34 350 3 301 90 498 239 605 459 74 153 93 222 98 362 5 127 -24 440 -53 564
-32 138 -106 230 -292 361 -249 176 -434 234 -621 196 -198 -40 -343 -149
-528 -397 -168 -226 -221 -340 -316 -679 -30 -109 -32 -124 -31 -290 0 -272
35 -402 159 -591 115 -176 234 -278 440 -375 136 -65 237 -88 350 -81 344 22
777 295 963 609 125 212 231 470 268 651 19 91 16 193 -11 500 -17 198 -43
286 -112 390 -53 79 -451 500 -527 556 -85 64 -147 98 -231 127 -70 24 -95 28
-205 28 -191 1 -356 -47 -635 -184 -344 -168 -537 -335 -732 -632 -247 -376
-385 -959 -318 -1344 42 -237 157 -465 323 -636 163 -168 330 -255 762 -396
280 -91 371 -105 519 -82 203 33 616 218 815 366 109 80 246 208 374 348 307
335 360 429 458 801 74 282 79 385 34 664 -16 102 -39 263 -51 356 -12 94 -29
200 -38 238 -10 37 -16 67 -15 67 1 0 26 -37 55 -82 29 -46 98 -146 154 -223
212 -291 245 -364 294 -660 59 -354 63 -521 17 -682 -96 -338 -220 -539 -448
-729 -223 -186 -631 -422 -996 -576 -220 -93 -561 -224 -631 -243 -82 -23
-261 -30 -375 -16 -250 32 -607 146 -877 282 -258 129 -459 311 -635 574 -120
182 -155 378 -123 701 53 539 294 1125 669 1629 133 180 218 255 368 331 91
46 439 166 604 208 265 69 619 102 813 76z"/>
</g>
</svg>
