<?xml version="1.0" standalone="no"?>
<!DOCTYPE svg PUBLIC "-//W3C//DTD SVG 20010904//EN"
 "http://www.w3.org/TR/2001/REC-SVG-20010904/DTD/svg10.dtd">
<svg version="1.0" xmlns="http://www.w3.org/2000/svg"
 width="500.000000pt" height="500.000000pt" viewBox="0 0 500.000000 500.000000"
 preserveAspectRatio="xMidYMid meet">
<metadata>
Created by potrace 1.14, written by Peter Selinger 2001-2017
</metadata>
<g transform="translate(0.000000,500.000000) scale(0.100000,-0.100000)"
fill="#000000" stroke="none">
<path d="M2627 4684 c-1 -1 -22 -4 -47 -7 -156 -17 -567 -81 -627 -97 -126
-34 -543 -212 -701 -299 -68 -37 -190 -116 -202 -130 -3 -3 -27 -24 -55 -46
-27 -22 -88 -78 -135 -125 -74 -74 -109 -112 -235 -255 -34 -39 -97 -130 -128
-186 -66 -118 -152 -412 -182 -619 -4 -25 -8 -56 -10 -70 -3 -22 -10 -88 -20
-205 -2 -22 -6 -98 -10 -170 -3 -71 -9 -143 -11 -160 -10 -56 -12 -470 -3
-550 27 -252 96 -363 474 -760 224 -237 347 -331 593 -454 325 -163 559 -236
852 -266 36 -4 74 -9 85 -12 48 -10 178 -5 262 11 249 48 506 118 608 165 465
216 675 349 891 565 95 95 261 303 250 313 -3 3 31 45 77 92 191 198 281 362
374 678 36 122 38 135 38 273 0 151 -6 226 -29 382 -8 51 -18 113 -21 138 -14
91 -57 253 -86 320 -40 96 -75 153 -189 310 -54 74 -154 221 -223 325 -176
268 -243 343 -393 448 -71 49 -110 68 -414 200 -417 180 -483 200 -673 196
-59 -2 -108 -4 -110 -5z m319 -133 c81 -21 139 -44 449 -179 333 -145 414
-192 533 -312 96 -96 109 -124 30 -62 -157 123 -468 310 -627 378 -160 67
-255 86 -441 88 -146 1 -285 -6 -345 -18 -11 -2 -45 -7 -75 -12 -30 -4 -57 -8
-60 -9 -3 0 -27 -5 -55 -10 -27 -5 -52 -9 -55 -10 -3 -1 -21 -5 -40 -9 -124
-28 -451 -133 -579 -186 -233 -96 -364 -212 -567 -505 -287 -413 -502 -899
-578 -1311 -33 -178 -43 -290 -44 -479 -1 -231 23 -346 104 -494 138 -251 376
-483 669 -648 211 -120 727 -294 952 -321 69 -8 192 -7 243 2 185 33 386 106
880 321 139 61 234 108 355 178 147 85 148 86 106 51 -121 -100 -381 -268
-564 -363 -179 -94 -389 -164 -662 -220 -142 -29 -261 -35 -385 -17 -273 40
-352 58 -500 113 -194 73 -424 187 -560 277 -196 131 -647 614 -729 781 -53
108 -60 181 -56 545 2 179 6 350 9 380 6 70 15 160 22 230 28 291 85 527 175
726 64 142 317 424 550 610 72 58 134 95 264 159 203 100 349 163 502 215 115
40 178 54 343 76 19 2 62 9 95 14 33 5 85 12 115 15 30 4 96 12 145 19 124 18
281 13 381 -13z m180 -199 c199 -52 361 -133 649 -325 253 -167 304 -229 330
-397 3 -19 7 -46 10 -60 4 -23 10 -65 20 -150 19 -154 45 -322 61 -397 13 -61
12 -289 -2 -363 -23 -119 -69 -285 -114 -413 -60 -168 -132 -271 -364 -522
-188 -203 -251 -260 -416 -370 -118 -78 -374 -215 -403 -215 -7 0 -17 -4 -23
-9 -17 -17 -218 -79 -310 -96 -99 -19 -201 -16 -281 9 -26 8 -102 31 -168 52
-264 80 -513 185 -644 271 -123 81 -265 248 -342 403 -136 274 -153 518 -68
945 65 326 252 678 484 911 133 134 266 225 480 329 284 138 414 176 605 181
107 2 135 -1 195 -20 150 -49 226 -107 468 -358 324 -337 345 -372 371 -623 5
-52 15 -157 21 -235 8 -102 6 -229 -5 -290 -38 -209 -207 -571 -347 -746 -192
-239 -604 -456 -863 -456 -113 0 -269 54 -417 143 -102 63 -175 127 -254 227
-147 184 -207 370 -203 637 1 127 10 180 50 313 89 298 159 437 331 652 191
239 351 331 565 325 157 -4 291 -59 498 -204 75 -53 73 -51 138 -114 79 -77
117 -166 136 -317 3 -25 8 -67 12 -95 3 -27 7 -61 9 -75 8 -54 18 -218 18
-266 -2 -71 -29 -173 -73 -275 -86 -198 -194 -305 -413 -410 -195 -92 -383
-118 -512 -71 -149 55 -318 186 -374 291 -94 177 -101 303 -29 525 69 214 119
283 316 433 41 31 179 99 238 116 102 30 239 -22 342 -130 34 -36 62 -70 62
-75 0 -6 8 -22 18 -36 48 -70 111 -253 116 -335 1 -23 -6 -73 -16 -112 -50
-182 -143 -264 -368 -322 -117 -30 -233 -34 -305 -8 -224 79 -272 179 -184
380 58 133 247 305 338 307 43 1 100 -32 172 -99 85 -81 103 -117 97 -197 -10
-120 -77 -195 -181 -204 -67 -5 -151 26 -197 73 -29 29 -33 42 -33 82 0 143
161 257 257 182 24 -19 25 -22 11 -49 -8 -15 -27 -38 -42 -50 -26 -20 -26 -20
-3 -9 14 6 35 23 47 38 76 90 -57 178 -176 116 -98 -50 -166 -215 -127 -307
45 -105 230 -170 341 -119 93 42 143 125 152 254 7 106 -12 148 -109 246 -87
88 -159 126 -220 117 -118 -18 -288 -174 -370 -341 -71 -144 -68 -285 9 -374
59 -69 215 -131 334 -133 96 -2 246 36 354 88 121 59 183 132 229 269 48 140
41 240 -31 419 -85 213 -176 309 -368 388 -70 28 -160 11 -296 -58 -220 -110
-356 -258 -433 -472 -87 -243 -92 -397 -19 -572 58 -140 139 -224 318 -327 97
-56 146 -71 251 -78 97 -6 247 30 389 95 264 120 417 300 501 589 25 86 34
229 20 336 -2 22 -7 69 -11 105 -37 400 -83 483 -368 674 -191 127 -311 175
-455 181 -246 9 -441 -112 -664 -412 -145 -196 -204 -314 -277 -557 -61 -201
-69 -257 -66 -441 5 -249 40 -374 160 -556 115 -176 261 -298 463 -387 199
-88 341 -93 562 -20 297 98 583 318 728 561 128 215 229 459 267 648 16 78 16
228 0 389 -2 19 -6 73 -10 120 -16 208 -44 295 -136 416 -27 37 -56 72 -62 79
-7 6 -82 85 -167 175 -85 90 -160 168 -166 174 -220 216 -427 287 -699 240
-222 -39 -536 -179 -797 -355 -121 -82 -290 -262 -398 -422 -128 -192 -246
-469 -296 -697 -4 -19 -9 -39 -10 -45 -9 -32 -35 -200 -40 -260 -11 -124 -7
-286 11 -375 2 -14 7 -38 11 -55 19 -101 92 -276 157 -380 136 -219 301 -355
567 -468 113 -47 431 -155 570 -193 119 -32 277 -28 404 10 285 85 605 250
795 409 193 162 459 451 566 617 65 100 91 158 130 285 93 309 115 428 110
600 -4 134 -5 143 -30 279 -8 45 -17 104 -20 131 -3 28 -8 61 -10 75 -2 14
-11 81 -20 150 -23 175 -22 170 -38 223 -8 26 -14 47 -12 47 2 0 31 -44 65
-97 35 -54 101 -150 148 -213 185 -248 232 -347 276 -570 3 -14 7 -36 10 -49
3 -13 8 -49 12 -80 3 -31 8 -58 9 -61 2 -3 6 -37 10 -75 4 -39 10 -79 12 -90
3 -11 7 -78 9 -150 4 -119 1 -140 -25 -240 -78 -296 -180 -484 -356 -660 -194
-194 -544 -414 -996 -626 -9 -4 -67 -28 -129 -53 -62 -26 -131 -55 -154 -65
-121 -54 -422 -162 -491 -175 -123 -24 -329 -16 -480 19 -301 68 -640 197
-850 322 -176 105 -353 279 -497 488 -114 166 -141 263 -142 505 -1 154 5 271
18 335 2 11 11 61 21 110 91 492 346 1036 686 1465 106 134 189 204 323 269
123 60 532 194 691 227 134 27 233 42 335 50 47 3 86 8 88 9 2 2 74 2 160 0
120 -2 176 -7 238 -23z"/>
</g>
</svg>
