<?xml version="1.0" encoding="UTF-8" standalone="no"?>
<svg
   id="logo"
   width="500"
   height="500"
   viewBox="0 0 375 375"
   version="1.2"
   sodipodi:docname="favicon.svg"
   inkscape:version="1.1.1 (c3084ef, 2021-09-22)"
   inkscape:export-filename="/Users/irina/github/spiralwood.art/img/favicon.png"
   inkscape:export-xdpi="96"
   inkscape:export-ydpi="96"
   xmlns:inkscape="http://www.inkscape.org/namespaces/inkscape"
   xmlns:sodipodi="http://sodipodi.sourceforge.net/DTD/sodipodi-0.dtd"
   xmlns="http://www.w3.org/2000/svg"
   xmlns:svg="http://www.w3.org/2000/svg">
  <defs
     id="defs7" />
  <sodipodi:namedview
     id="namedview5"
     pagecolor="#ffffff"
     bordercolor="#111111"
     borderopacity="1"
     inkscape:pageshadow="0"
     inkscape:pageopacity="0"
     inkscape:pagecheckerboard="1"
     inkscape:document-units="pt"
     showgrid="false"
     units="px"
     inkscape:zoom="1.122"
     inkscape:cx="-47.237077"
     inkscape:cy="214.34938"
     inkscape:window-width="1296"
     inkscape:window-height="783"
     inkscape:window-x="0"
     inkscape:window-y="25"
     inkscape:window-maximized="0"
     inkscape:current-layer="layer2" />
  <g
     inkscape:groupmode="layer"
     id="layer1"
     inkscape:label="Background" />
  <g
     inkscape:groupmode="layer"
     id="layer2"
     inkscape:label="Spiral">
    <path
       d="m 257.22656,273.8125 c -0.15625,0.10156 -0.30078,0.21875 -0.43359,0.34375 0.13281,-0.125 0.27734,-0.24219 0.43359,-0.34375 z m 5.84766,-4.71484 -0.36719,0.30078 z m 0,0 -0.17188,0.14843 z m 0.19531,-0.15235 -0.25781,0.21485 z m -92.37891,-2.16406 z m 100.33204,-61.92188 -0.14844,0.28125 z M 134.39844,43.828125 l 0.60547,-0.257813 z m -9.51172,22.605469 h 0.14844 z m 183.41406,37.999996 z m -75.21484,11.96094 -0.15235,-0.10937 z m -32.20313,16.33203 h -0.28125 z m -16.85937,0.21485 h 0.19531 z m 158.80078,8.78125 -0.10938,-0.32422 z m -144.47656,28.33203 c 0.0117,-0.0547 0.0117,-0.11328 0,-0.17188 z m -19.13672,5.27734 z m 71.27343,9.67188 v -0.23829 z M 25.355469,210.39453 c 0,-0.21484 0,-0.43359 0,-0.64844 0,0.21485 0,0.4336 0,0.64844 z m 0,0.49609 z m 95.347661,0.9961 c 0,0 0,-0.19531 0,-0.28125 z m 3.23046,11.35547 -0.10937,-0.23828 c 0.0625,0.0781 0.12109,0.15625 0.17187,0.23828 z m 34.36719,0.47656 -0.19531,-0.12891 z M 188.25,236.26172 Z M 26.070312,242.75 v -0.28125 z m 120.031248,10.55469 h -0.13281 z m 108.35156,15.35937 0.51954,-0.43359 z m -68.13281,0.64844 z m 13.41406,59.93359 c 3.14063,-1.16797 26.76172,-10.20703 26.8711,-10.2539 h -0.21875 c 25.55078,-11.39844 27.48047,-9.53516 66.39844,-33.11328 40.54687,-24.46094 50.14453,-45.72266 57.98828,-76.80469 2.16797,-9.60156 0.97656,-16.97656 -0.64844,-30.28125 -5.67578,-46.56641 -12.11328,-46.62891 -31.53125,-74.44531 -2.16406,-3.28907 -5.85156,-9.12891 -9.38281,-14.621098 4.03125,9.277344 3.96484,18.968748 7.26172,42.199218 5.08984,29.15625 6.93359,33.82813 -5.69922,75.44141 -5.41797,17.86328 -18.33594,31.40625 -31.70313,45.80859 -5.08203,5.71484 -10.52734,11.05859 -16.33984,16.02734 l 0.17187,-0.1289 -0.39062,0.30469 h 0.13281 l -5.55078,4.6914 0.54297,-0.45312 -0.32422,0.28125 c -10.59766,8.65234 -26.95703,17.04297 -39.52734,22.33984 -34.39063,14.55859 -42.92969,9.08594 -67.9375,1.08203 -25.69922,-8.23828 -45.50391,-16.21875 -60.156254,-35.46875 -18.785156,-24.78906 -22.101562,-49.96484 -17.769531,-78.0625 5.65625,-36.29297 21.671875,-69.64453 48.457035,-92.656248 13.78125,-11.808593 47.08984,-29.136718 68.82421,-31.988281 33.58985,-4.328125 48.41016,17.734375 62.47266,32.140625 19.26563,19.746094 25.05078,25.824224 26.69922,46.542964 2.66406,33.41797 3.29297,35.60157 -1.27734,50.54688 -1.69532,5.8125 -3.75391,11.49609 -6.17579,17.04297 -3.89453,8.73828 -8.3164,17.20312 -13.26171,25.39453 -13.84766,21.84375 -48.45704,43.25781 -74.46094,43.0625 -7.45313,0 -18.875,-4.32422 -25.54688,-7.80859 -16.21093,-8.64844 -22.77734,-15.00782 -32.50781,-30.75391 -7.91015,-12.82813 -9.51172,-25.95703 -9.51172,-40.66406 0,-13.82032 1.19141,-17.15235 6.5,-34.36719 3.33594,-11.94922 8.71094,-22.89844 16.1211,-32.85547 11.89843,-16.58984 23.83984,-31.621092 43.86328,-35.148436 16.57812,-2.898438 31.59375,4.609375 45.13672,14.253906 21.91015,15.55078 22.79687,19.66016 26.0039,50.46094 2.16797,20.35156 2.73047,28.66015 -7.84375,49.48828 -9.40234,18.49219 -31.78906,29.95703 -51.72656,33.5039 -8.125,1.44922 -17.16406,0.64844 -27.84375,-5.94921 C 156.13281,228 148.875,222.96094 144.01953,212.57812 c -8.66797,-18.33984 -4.33203,-30.82031 0.15234,-44.64062 5.00391,-15.26953 15.16797,-28.8125 37.92188,-38.80469 5.16016,-2.26953 9.32031,-3.60937 14.5625,-2.3125 17.33594,4.32422 26.00391,16.80469 31.70312,33.76172 4.48829,12.97656 4.46485,19.01172 -1.2539,32.61719 -4.6836,11.07422 -16.29688,16.78515 -28.02344,19.46484 -11.72266,2.6836 -17.16016,3.41797 -29.31641,-1.53515 -27.15234,-10.96485 -9.38281,-43.25782 5.78516,-54.28907 9.94531,-7.13672 16.42578,-10.3789 30.46875,5.03907 5.02734,5.51562 8.16797,10.03906 5.35156,21.6289 -0.39453,2.29297 -1.1875,4.4336 -2.3789,6.42969 -1.19141,1.99219 -2.70313,3.71094 -4.53516,5.14453 -0.95312,0.77344 -1.97266,1.4375 -3.06641,1.99609 -1.09375,0.5586 -2.23437,0.9961 -3.41796,1.31641 -1.1875,0.31641 -2.39063,0.50781 -3.61719,0.57422 -1.22656,0.0664 -2.44531,0.004 -3.65625,-0.1875 -1.10547,-0.24609 -2.19141,-0.5625 -3.25391,-0.95313 -7.97265,-2.72656 -13.65234,-6.64062 -13.36719,-15.14062 0.4336,-3.91406 1.67579,-7.55469 3.72657,-10.92188 4.33203,-6.92187 12.84765,-11.05468 19.91406,-5.6875 6.30469,4.80079 -3.85547,13.90625 -10.01172,12.3711 -0.47656,-0.12891 -0.93359,-0.36719 -1.42969,-0.45313 0.84375,0.3086 1.71094,0.46485 2.60938,0.46485 0.89844,0 1.76953,-0.15625 2.61328,-0.46485 1.60156,-0.62109 3,-1.55078 4.1875,-2.79297 1.18359,-1.24218 2.05078,-2.67578 2.59375,-4.30468 v 0.21875 c 0.125,-0.32032 0.15625,-0.64453 0.0937,-0.98047 -0.0625,-0.33594 -0.21094,-0.62891 -0.44141,-0.87891 l 0.15235,0.21485 c -0.22657,-0.27344 -0.47657,-0.51954 -0.75782,-0.73438 -10.42187,-7.03125 -22.77343,7.39453 -19.5039,17.17188 2.03906,4.67187 8.0625,6.98828 13.0039,8.21875 1.32813,0.23437 2.66407,0.28906 4.00782,0.16796 1.34375,-0.12109 2.64843,-0.41796 3.91406,-0.88671 1.26562,-0.46875 2.44531,-1.09766 3.54297,-1.88282 1.09765,-0.78125 2.07031,-1.69531 2.92187,-2.73828 1.35547,-2.15234 2.31641,-4.46875 2.88282,-6.94531 0.5625,-2.48047 0.70312,-4.98047 0.41406,-7.50391 -0.28125,-1.62109 -0.89844,-3.10937 -1.84375,-4.45703 -3.6836,-4.75781 -12.4375,-13.5625 -18.48438,-13.45312 -6.02343,0.6914 -18.57031,9.14843 -25.00781,22.40625 -6.06641,13.47656 -5.09375,21.84765 8.94922,27.6875 11.09766,4.60547 15.88672,3.67578 27.5,1.125 8.14844,-1.79688 16.90234,-5.53907 22.14844,-11.98438 2.89453,-4.5039 4.91797,-9.37109 6.0664,-14.59765 1.5625,-7.2461 -0.45312,-12.97657 -2.92578,-20.07422 -3.76953,-9.47266 -7.21484,-16.84766 -15.16797,-23.37891 -2.57422,-1.95312 -5.37109,-3.51172 -8.39062,-4.67187 -3.01563,-1.16407 -6.13672,-1.88282 -9.35938,-2.16407 -5.98047,0.51953 -15.6875,5.64453 -20.34765,8.65235 -14.73438,9.83984 -20.06641,17.30468 -24.98438,32.3125 -4.33594,13.6289 -6.19922,21.0664 -0.86719,35.17187 3.23047,8 7.47657,14.01563 19.08985,21.30469 7.60937,4.77734 14.65234,8.21875 23.83984,8 15.38672,-0.82031 38.52735,-10.35938 49.83985,-24.67969 6.37109,-8.5 12.33203,-22.92578 13.0039,-33.32812 0.25781,-8.80469 -2.16797,-27.70703 -3.40234,-36.48828 -2.47266,-15.14063 -5.8086,-20.52735 -30.57813,-36.23047 -3.92578,-2.50781 -8.11718,-4.45313 -12.5664,-5.839846 -31.59766,-10.402344 -49.34375,9.453126 -67.74219,36.988276 -5.9375,8.91016 -10.20703,21.36719 -13.26172,31.81641 -1.71094,4.66406 -2.9375,9.45313 -3.67969,14.36719 -0.73828,4.91015 -0.98046,9.84765 -0.71875,14.80859 0.45313,9.97266 0.60547,15.7461 4.17969,25.13281 8.66797,21.62891 25.22656,36.51172 47.24219,43.97266 h -0.17188 l 0.4336,0.15234 h -0.15235 c 10.66016,3.50391 21.01953,5.01563 43.96875,-5.51562 10.375,-5.04297 19.85938,-11.41016 28.45313,-19.09766 15.64453,-13.75781 32.5039,-52.27734 33.4375,-69.5625 -0.28125,-14.73828 -1.47266,-29.40234 -3.57813,-43.99218 -2.03515,-9.23438 -9.01562,-17.53907 -15.71093,-24.375 -28.88672,-29.675785 -40.69532,-51.281254 -89.19532,-33.589848 -28.55859,12.046876 -50.33984,23.46875 -68.1289,51.218748 -15.363284,23.94141 -21.000002,42.08985 -24.359378,71.02735 -0.667968,5.36718 -0.832031,10.75 -0.484374,16.14843 0.34375,5.39844 1.191406,10.71485 2.542968,15.95313 1.347656,5.23828 3.175782,10.30469 5.484375,15.19922 2.308594,4.89453 5.050781,9.53125 8.234375,13.91015 10.445314,14.64453 20.671874,20.82813 37.121094,28.11719 13.09766,5.27734 26.44141,9.84766 40.02344,13.71484 5.19922,1.78125 10.54297,2.61329 16.03906,2.48438 17.50781,-1.07813 44.01172,-12.97656 58.50781,-22.38281 16.01563,-10.23047 22.01563,-16.17969 33.74219,-28.8125 11.72266,-12.62891 21.14844,-23.35938 26.00391,-33.4375 4.97265,-12.42578 8.75781,-25.19922 11.35546,-38.32813 3.09766,-19.46484 -0.54296,-27.96484 -2.53515,-42.37109 -4.83594,-34.32422 -2.83985,-40.703126 -16.64453,-51.800782 -9.79688,-7.351563 -33.41407,-22.753907 -44.6836,-27.230469 -6.75,-3.023438 -13.75781,-5.234375 -21.01953,-6.640625 -7.67187,-1.382813 -22.79687,-0.949219 -28.82422,-0.390625 -24.07422,2.316406 -34.88672,5.171875 -55.38672,11.917969 -29.55859,9.714843 -38.53124,13.714843 -56.539058,39.820312 -12.273437,17.08594 -22.382812,35.36328 -30.335937,54.82812 -11.097656,26.23829 -19.808594,64.34766 -15.605469,92.59375 0.644532,3.89063 1.710938,7.66016 3.203125,11.3125 1.492188,3.64844 3.375,7.08985 5.640625,10.32032 19.847656,29.6289 39.003906,41.41797 71.382814,53.55078 21.58203,7.09375 50.62109,17.30469 76.625,7.78906 z m -42.1914,14.55469 c 11.85156,1.14844 13,2.16406 22.03906,1.86328 11.78906,-1.0625 30.33594,-5.77734 43.53516,-10.01562 17.74609,-5.73047 49.03906,-24.44141 65.96484,-39.08203 -21.80078,12.69531 -24.20703,14.59765 -54.67578,27.09765 h 0.15234 l -0.41406,0.17578 h 0.26172 l -0.71484,0.28125 0.34765,-0.1289 -6.5039,2.63672 0.71875,-0.28125 -1.08594,0.43359 h 0.21875 c -47.67578,19.46484 -53.89453,19.57422 -106.42188,1.83594 l 0.69141,0.23828 c -21.49609,-7.375 -42.125,-18.87891 -57.730469,-35.14453 C 41.128906,269.91797 37.078125,253.89062 36.6875,237.60547 35.800781,200.40234 44.855469,158.14062 77.058594,106.66016 79.335938,103.02734 89.109375,88.902344 92.683594,84.578125 108.58984,65.351562 118.125,60.246094 161.07422,47.464844 c 19.91406,-5.90625 53.58984,-9.671875 70.79687,-6.273438 15.58203,3.070313 29.19141,10.617188 42.25782,18.578125 7.36718,4.476563 23.1875,14.601563 29.125,20.851563 C 289.51562,61.542969 276.72656,56.4375 255.16797,47.417969 236.76953,39.742188 223.80859,30.875 202.44141,31.609375 c -7.90625,0.410156 -48.01954,6.292969 -48.23829,6.335937 -15.33984,2.402344 -47.89062,17.671876 -60.003901,24.160157 -18.308594,9.648437 -44.183594,38.628911 -50.316407,48.601561 -5.527343,9.03906 -9.710937,24.46094 -12.199218,34.82031 l 0.257812,-1.07812 c -6.847656,34.15234 -7.519531,86.36328 -5.699218,99.05859 1.515624,9.60547 1.929687,13.69141 15.167968,29.28516 9.882813,11.63672 26.375,28.76953 29.972656,32.05469 8.117188,7.6914 17.210938,13.96875 27.28125,18.83984 10.457028,5.51953 21.257818,10.26172 32.398438,14.23047 8.63281,2.83203 17.45703,4.79297 26.48047,5.88281 z m -3.98828,8.65234 C 134.83203,350.29297 112.01172,340.25391 95.304688,331.47266 77.558594,322.12891 70.449219,315.57812 59.269531,304.04687 51.617188,296.17578 44.292969,288.41016 36.710938,279.45703 17.855469,257.17969 16.425781,250.66797 21.367188,177.5625 22.058594,164.22266 24.015625,151.07422 27.238281,138.10937 33.371094,113.0625 39.808594,103.67578 48.757812,93.402344 73.308594,65.285156 85.316406,57.867188 100.76563,50.40625 c 9.79687,-4.761719 34.67187,-15.878906 45.16015,-18.820312 8.80078,-2.441407 17.20703,-2.898438 37.62109,-5.988282 37.96485,-5.796875 38.05079,-1.839844 87.71875,19.203125 34.39063,14.601563 37.42579,34.023438 62.84375,67.742189 11.8125,15.66015 16.36329,25.19922 20.00391,48.60156 1.69141,10.94531 4.67969,31.85938 3.48828,42.97656 -0.82422,7.83203 -7.73828,32.44532 -16.8164,46.9375 -6.16016,9.26563 -13.45313,17.53516 -21.88672,24.8086 l 3.03515,-1.27735 c -3.07812,4.17578 -6.11328,8.3711 -9.2539,12.48047 -20.30469,26.60156 -54.04688,44.79297 -85.03516,57.1875 -8.66797,3.39453 -38.39844,9.53906 -40.08984,9.77344 -4.19532,0.70312 -8.42188,1.03516 -12.67578,0.99609 -0.62891,-0.0859 -5.98047,-0.75781 -21.41016,-2.55078 z m 0,0"
       id="path2"
       style="fill:#5c9774;fill-opacity:1"
       inkscape:export-filename="/Users/irina/github/spiralwood.art/img/favicon-opaque.png"
       inkscape:export-xdpi="96"
       inkscape:export-ydpi="96" />
  </g>
</svg>
