<svg id="logo" xmlns="http://www.w3.org/2000/svg" xmlns:xlink="http://www.w3.org/1999/xlink" width="375pt" height="375pt" viewBox="0 0 375 375" version="1.2">
      <path d="M 257.226562 273.8125 C 257.070312 273.914062 256.925781 274.03125 256.792969 274.15625 C 256.925781 274.03125 257.070312 273.914062 257.226562 273.8125 Z M 263.074219 269.097656 L 262.707031 269.398438 Z M 263.074219 269.097656 L 262.902344 269.246094 Z M 263.269531 268.945312 L 263.011719 269.160156 Z M 170.890625 266.78125 Z M 271.222656 204.859375 L 271.074219 205.140625 Z M 134.398438 43.828125 L 135.003906 43.570312 Z M 124.886719 66.433594 L 125.035156 66.433594 Z M 308.300781 104.433594 Z M 233.085938 116.394531 L 232.933594 116.285156 Z M 200.882812 132.726562 L 200.601562 132.726562 Z M 184.023438 132.941406 L 184.21875 132.941406 Z M 342.824219 141.722656 L 342.714844 141.398438 Z M 198.347656 170.054688 C 198.359375 170 198.359375 169.941406 198.347656 169.882812 Z M 179.210938 175.332031 Z M 250.484375 185.003906 L 250.484375 184.765625 Z M 25.355469 210.394531 C 25.355469 210.179688 25.355469 209.960938 25.355469 209.746094 C 25.355469 209.960938 25.355469 210.179688 25.355469 210.394531 Z M 25.355469 210.890625 Z M 120.703125 211.886719 C 120.703125 211.886719 120.703125 211.691406 120.703125 211.605469 Z M 123.933594 223.242188 L 123.824219 223.003906 C 123.886719 223.082031 123.945312 223.160156 123.996094 223.242188 Z M 158.300781 223.71875 L 158.105469 223.589844 Z M 188.25 236.261719 Z M 26.070312 242.75 L 26.070312 242.46875 Z M 146.101562 253.304688 L 145.96875 253.304688 Z M 254.453125 268.664062 L 254.972656 268.230469 Z M 186.320312 269.3125 Z M 199.734375 329.246094 C 202.875 328.078125 226.496094 319.039062 226.605469 318.992188 L 226.386719 318.992188 C 251.9375 307.59375 253.867188 309.457031 292.785156 285.878906 C 333.332031 261.417969 342.929688 240.15625 350.773438 209.074219 C 352.941406 199.472656 351.75 192.097656 350.125 178.792969 C 344.449219 132.226562 338.011719 132.164062 318.59375 104.347656 C 316.429688 101.058594 312.742188 95.21875 309.210938 89.726562 C 313.242188 99.003906 313.175781 108.695312 316.472656 131.925781 C 321.5625 161.082031 323.40625 165.753906 310.773438 207.367188 C 305.355469 225.230469 292.4375 238.773438 279.070312 253.175781 C 273.988281 258.890625 268.542969 264.234375 262.730469 269.203125 L 262.902344 269.074219 L 262.511719 269.378906 L 262.644531 269.378906 L 257.09375 274.070312 L 257.636719 273.617188 L 257.3125 273.898438 C 246.714844 282.550781 230.355469 290.941406 217.785156 296.238281 C 183.394531 310.796875 174.855469 305.324219 149.847656 297.320312 C 124.148438 289.082031 104.34375 281.101562 89.691406 261.851562 C 70.90625 237.0625 67.589844 211.886719 71.921875 183.789062 C 77.578125 147.496094 93.59375 114.144531 120.378906 91.132812 C 134.160156 79.324219 167.46875 61.996094 189.203125 59.144531 C 222.792969 54.816406 237.613281 76.878906 251.675781 91.285156 C 270.941406 111.03125 276.726562 117.109375 278.375 137.828125 C 281.039062 171.246094 281.667969 173.429688 277.097656 188.375 C 275.402344 194.1875 273.34375 199.871094 270.921875 205.417969 C 267.027344 214.15625 262.605469 222.621094 257.660156 230.8125 C 243.8125 252.65625 209.203125 274.070312 183.199219 273.875 C 175.746094 273.875 164.324219 269.550781 157.652344 266.066406 C 141.441406 257.417969 134.875 251.058594 125.144531 235.3125 C 117.234375 222.484375 115.632812 209.355469 115.632812 194.648438 C 115.632812 180.828125 116.824219 177.496094 122.132812 160.28125 C 125.46875 148.332031 130.84375 137.382812 138.253906 127.425781 C 150.152344 110.835938 162.09375 95.804688 182.117188 92.277344 C 198.695312 89.378906 213.710938 96.886719 227.253906 106.53125 C 249.164062 122.082031 250.050781 126.191406 253.257812 156.992188 C 255.425781 177.34375 255.988281 185.652344 245.414062 206.480469 C 236.011719 224.972656 213.625 236.4375 193.6875 239.984375 C 185.5625 241.433594 176.523438 240.632812 165.84375 234.035156 C 156.132812 228 148.875 222.960938 144.019531 212.578125 C 135.351562 194.238281 139.6875 181.757812 144.171875 167.9375 C 149.175781 152.667969 159.339844 139.125 182.09375 129.132812 C 187.253906 126.863281 191.414062 125.523438 196.65625 126.820312 C 213.992188 131.144531 222.660156 143.625 228.359375 160.582031 C 232.847656 173.558594 232.824219 179.59375 227.105469 193.199219 C 222.421875 204.273438 210.808594 209.984375 199.082031 212.664062 C 187.359375 215.347656 181.921875 216.082031 169.765625 211.128906 C 142.613281 200.164062 160.382812 167.871094 175.550781 156.839844 C 185.496094 149.703125 191.976562 146.460938 206.019531 161.878906 C 211.046875 167.394531 214.1875 171.917969 211.371094 183.507812 C 210.976562 185.800781 210.183594 187.941406 208.992188 189.9375 C 207.800781 191.929688 206.289062 193.648438 204.457031 195.082031 C 203.503906 195.855469 202.484375 196.519531 201.390625 197.078125 C 200.296875 197.636719 199.15625 198.074219 197.972656 198.394531 C 196.785156 198.710938 195.582031 198.902344 194.355469 198.96875 C 193.128906 199.035156 191.910156 198.972656 190.699219 198.78125 C 189.59375 198.535156 188.507812 198.21875 187.445312 197.828125 C 179.472656 195.101562 173.792969 191.1875 174.078125 182.6875 C 174.511719 178.773438 175.753906 175.132812 177.804688 171.765625 C 182.136719 164.84375 190.652344 160.710938 197.71875 166.078125 C 204.023438 170.878906 193.863281 179.984375 187.707031 178.449219 C 187.230469 178.320312 186.773438 178.082031 186.277344 177.996094 C 187.121094 178.304688 187.988281 178.460938 188.886719 178.460938 C 189.785156 178.460938 190.65625 178.304688 191.5 177.996094 C 193.101562 177.375 194.5 176.445312 195.6875 175.203125 C 196.871094 173.960938 197.738281 172.527344 198.28125 170.898438 L 198.28125 171.117188 C 198.40625 170.796875 198.4375 170.472656 198.375 170.136719 C 198.3125 169.800781 198.164062 169.507812 197.933594 169.257812 L 198.085938 169.472656 C 197.859375 169.199219 197.609375 168.953125 197.328125 168.738281 C 186.90625 161.707031 174.554688 176.132812 177.824219 185.910156 C 179.863281 190.582031 185.886719 192.898438 190.828125 194.128906 C 192.15625 194.363281 193.492188 194.417969 194.835938 194.296875 C 196.179688 194.175781 197.484375 193.878906 198.75 193.410156 C 200.015625 192.941406 201.195312 192.3125 202.292969 191.527344 C 203.390625 190.746094 204.363281 189.832031 205.214844 188.789062 C 206.570312 186.636719 207.53125 184.320312 208.097656 181.84375 C 208.660156 179.363281 208.800781 176.863281 208.511719 174.339844 C 208.230469 172.71875 207.613281 171.230469 206.667969 169.882812 C 202.984375 165.125 194.230469 156.320312 188.183594 156.429688 C 182.160156 157.121094 169.613281 165.578125 163.175781 178.835938 C 157.109375 192.3125 158.082031 200.683594 172.125 206.523438 C 183.222656 211.128906 188.011719 210.199219 199.625 207.648438 C 207.773438 205.851562 216.527344 202.109375 221.773438 195.664062 C 224.667969 191.160156 226.691406 186.292969 227.839844 181.066406 C 229.402344 173.820312 227.386719 168.089844 224.914062 160.992188 C 221.144531 151.519531 217.699219 144.144531 209.746094 137.613281 C 207.171875 135.660156 204.375 134.101562 201.355469 132.941406 C 198.339844 131.777344 195.21875 131.058594 191.996094 130.777344 C 186.015625 131.296875 176.308594 136.421875 171.648438 139.429688 C 156.914062 149.269531 151.582031 156.734375 146.664062 171.742188 C 142.328125 185.371094 140.464844 192.808594 145.796875 206.914062 C 149.027344 214.914062 153.273438 220.929688 164.886719 228.21875 C 172.496094 232.996094 179.539062 236.4375 188.726562 236.21875 C 204.113281 235.398438 227.253906 225.859375 238.566406 211.539062 C 244.9375 203.039062 250.898438 188.613281 251.570312 178.210938 C 251.828125 169.40625 249.402344 150.503906 248.167969 141.722656 C 245.695312 126.582031 242.359375 121.195312 217.589844 105.492188 C 213.664062 102.984375 209.472656 101.039062 205.023438 99.652344 C 173.425781 89.25 155.679688 109.105469 137.28125 136.640625 C 131.34375 145.550781 127.074219 158.007812 124.019531 168.457031 C 122.308594 173.121094 121.082031 177.910156 120.339844 182.824219 C 119.601562 187.734375 119.359375 192.671875 119.621094 197.632812 C 120.074219 207.605469 120.226562 213.378906 123.800781 222.765625 C 132.46875 244.394531 149.027344 259.277344 171.042969 266.738281 L 170.871094 266.738281 L 171.304688 266.890625 L 171.152344 266.890625 C 181.8125 270.394531 192.171875 271.90625 215.121094 261.375 C 225.496094 256.332031 234.980469 249.964844 243.574219 242.277344 C 259.21875 228.519531 276.078125 190 277.011719 172.714844 C 276.730469 157.976562 275.539062 143.3125 273.433594 128.722656 C 271.398438 119.488281 264.417969 111.183594 257.722656 104.347656 C 228.835938 74.671875 217.027344 53.066406 168.527344 70.757812 C 139.96875 82.804688 118.1875 94.226562 100.398438 121.976562 C 85.035156 145.917969 79.398438 164.066406 76.039062 193.003906 C 75.371094 198.371094 75.207031 203.753906 75.554688 209.152344 C 75.898438 214.550781 76.746094 219.867188 78.097656 225.105469 C 79.445312 230.34375 81.273438 235.410156 83.582031 240.304688 C 85.890625 245.199219 88.632812 249.835938 91.816406 254.214844 C 102.261719 268.859375 112.488281 275.042969 128.9375 282.332031 C 142.035156 287.609375 155.378906 292.179688 168.960938 296.046875 C 174.160156 297.828125 179.503906 298.660156 185 298.53125 C 202.507812 297.453125 229.011719 285.554688 243.507812 276.148438 C 259.523438 265.917969 265.523438 259.96875 277.25 247.335938 C 288.972656 234.707031 298.398438 223.976562 303.253906 213.898438 C 308.226562 201.472656 312.011719 188.699219 314.609375 175.570312 C 317.707031 156.105469 314.066406 147.605469 312.074219 133.199219 C 307.238281 98.875 309.234375 92.496094 295.429688 81.398438 C 285.632812 74.046875 262.015625 58.644531 250.746094 54.167969 C 243.996094 51.144531 236.988281 48.933594 229.726562 47.527344 C 222.054688 46.144531 206.929688 46.578125 200.902344 47.136719 C 176.828125 49.453125 166.015625 52.308594 145.515625 59.054688 C 115.957031 68.769531 106.984375 72.769531 88.976562 98.875 C 76.703125 115.960938 66.59375 134.238281 58.640625 153.703125 C 47.542969 179.941406 38.832031 218.050781 43.035156 246.296875 C 43.679688 250.1875 44.746094 253.957031 46.238281 257.609375 C 47.730469 261.257812 49.613281 264.699219 51.878906 267.929688 C 71.726562 297.558594 90.882812 309.347656 123.261719 321.480469 C 144.84375 328.574219 173.882812 338.785156 199.886719 329.269531 Z M 157.542969 343.800781 C 169.394531 344.949219 170.542969 345.964844 179.582031 345.664062 C 191.371094 344.601562 209.917969 339.886719 223.117188 335.648438 C 240.863281 329.917969 272.15625 311.207031 289.082031 296.566406 C 267.28125 309.261719 264.875 311.164062 234.40625 323.664062 L 234.558594 323.664062 L 234.144531 323.839844 L 234.40625 323.839844 L 233.691406 324.121094 L 234.039062 323.992188 L 227.535156 326.628906 L 228.253906 326.347656 L 227.167969 326.78125 L 227.386719 326.78125 C 179.710938 346.246094 173.492188 346.355469 120.964844 328.617188 L 121.65625 328.855469 C 100.160156 321.480469 79.53125 309.976562 63.925781 293.710938 C 41.128906 269.917969 37.078125 253.890625 36.6875 237.605469 C 35.800781 200.402344 44.855469 158.140625 77.058594 106.660156 C 79.335938 103.027344 89.109375 88.902344 92.683594 84.578125 C 108.589844 65.351562 118.125 60.246094 161.074219 47.464844 C 180.988281 41.558594 214.664062 37.792969 231.871094 41.191406 C 247.453125 44.261719 261.0625 51.808594 274.128906 59.769531 C 281.496094 64.246094 297.316406 74.371094 303.253906 80.621094 C 289.515625 61.542969 276.726562 56.4375 255.167969 47.417969 C 236.769531 39.742188 223.808594 30.875 202.441406 31.609375 C 194.535156 32.019531 154.421875 37.902344 154.203125 37.945312 C 138.863281 40.347656 106.3125 55.617188 94.199219 62.105469 C 75.890625 71.753906 50.015625 100.734375 43.882812 110.707031 C 38.355469 119.746094 34.171875 135.167969 31.683594 145.527344 L 31.941406 144.449219 C 25.09375 178.601562 24.421875 230.8125 26.242188 243.507812 C 27.757812 253.113281 28.171875 257.199219 41.410156 272.792969 C 51.292969 284.429688 67.785156 301.5625 71.382812 304.847656 C 79.5 312.539062 88.59375 318.816406 98.664062 323.6875 C 109.121094 329.207031 119.921875 333.949219 131.0625 337.917969 C 139.695312 340.75 148.519531 342.710938 157.542969 343.800781 Z M 153.554688 352.453125 C 134.832031 350.292969 112.011719 340.253906 95.304688 331.472656 C 77.558594 322.128906 70.449219 315.578125 59.269531 304.046875 C 51.617188 296.175781 44.292969 288.410156 36.710938 279.457031 C 17.855469 257.179688 16.425781 250.667969 21.367188 177.5625 C 22.058594 164.222656 24.015625 151.074219 27.238281 138.109375 C 33.371094 113.0625 39.808594 103.675781 48.757812 93.402344 C 73.308594 65.285156 85.316406 57.867188 100.765625 50.40625 C 110.5625 45.644531 135.4375 34.527344 145.925781 31.585938 C 154.726562 29.144531 163.132812 28.6875 183.546875 25.597656 C 221.511719 19.800781 221.597656 23.757812 271.265625 44.800781 C 305.65625 59.402344 308.691406 78.824219 334.109375 112.542969 C 345.921875 128.203125 350.472656 137.742188 354.113281 161.144531 C 355.804688 172.089844 358.792969 193.003906 357.601562 204.121094 C 356.777344 211.953125 349.863281 236.566406 340.785156 251.058594 C 334.625 260.324219 327.332031 268.59375 318.898438 275.867188 L 321.933594 274.589844 C 318.855469 278.765625 315.820312 282.960938 312.679688 287.070312 C 292.375 313.671875 258.632812 331.863281 227.644531 344.257812 C 218.976562 347.652344 189.246094 353.796875 187.554688 354.03125 C 183.359375 354.734375 179.132812 355.066406 174.878906 355.027344 C 174.25 354.941406 168.898438 354.269531 153.46875 352.476562 Z M 153.554688 352.453125 "/>
    </svg>